<?xml version="1.0" encoding="UTF-8"?>
<svg id="b" data-name="Layer 2" xmlns="http://www.w3.org/2000/svg" width="220.06" height="36.47" viewBox="0 0 220.06 36.47">
  <g id="c" data-name="Layer 2">
    <g>
      <g>
        <path d="M.17,20.97S2.81,6.54,4.12,4.86s4.46-2.4,6.54,.39,5.94,7.35,4.01,12.1S2.71,23.68,2.71,23.68c0,0-3.52,.52-2.53-2.71Z" fill="#ff8038"/>
        <path d="M28.67,26.27s-12.4-3.09-14.2-2.66c-1.8,.43-3.51,2.68-2.04,5.33,1.46,2.65,3.7,7.36,8.16,7.52,4.46,.17,9.32-7.21,9.32-7.21,0,0,1.68-2.61-1.24-2.98Z" fill="#ff437d"/>
        <polygon points="27.53 15.88 24.93 18.34 20.91 13.83 23.51 11.37 27.53 15.88" fill="#ff8036"/>
        <path d="M35.25,19.3c-.33,.33-.72,.64-1.18,.93-3.43,2.11-6.65,.85-8.37-.87l3-3c.51,.51,1.59,1.22,3.15,.26,1.02-.63,.93-1.61,.85-1.99-1.16-3.07-3.53-8.39-5.09-9.95-.27-.27-.82-.82-2.16-.04-.18,.1-.33,.25-.44,.42-1.18,1.79-2.09,3.37-2.33,4.03-.1,.27,.16,.97,.44,1.37l-3.46,2.45c-.19-.27-1.87-2.72-.97-5.24,.46-1.29,1.76-3.4,2.78-4.94,.47-.71,1.1-1.31,1.83-1.74,2.61-1.53,5.34-1.28,7.3,.69,2.74,2.74,5.76,10.67,6.1,11.57l.05,.14c.39,1.29,.46,3.95-1.5,5.91Z" fill="#06283d"/>
      </g>
      <g>
        <path d="M143.73,12.27s-18.91-4.71-21.66-4.05c-2.75,.66-5.35,4.08-3.12,8.13,2.23,4.05,5.64,11.22,12.45,11.47,6.81,.25,14.22-11,14.22-11,0,0,2.56-3.97-1.89-4.55Z" fill="#00283f"/>
        <path d="M187.74,4.68h5.88V28.33h-5.88V4.68Zm7.11,11.03h.71c.63,0,1.09-.03,1.4-.09,.3-.06,.54-.19,.72-.4,.18-.18,.29-.45,.34-.81,.05-.35,.07-.89,.07-1.6s-.03-1.24-.07-1.6c-.05-.35-.16-.64-.34-.84-.18-.18-.42-.3-.73-.36-.31-.06-.77-.09-1.38-.09h-.71V4.68h2.44c1.45,0,2.63,.17,3.54,.5,.91,.33,1.6,.84,2.07,1.53,.45,.64,.75,1.45,.91,2.42,.16,.97,.23,2.21,.23,3.69s-.07,2.6-.22,3.54c-.15,.94-.44,1.73-.87,2.37-.49,.73-1.19,1.29-2.1,1.67s-2.1,.57-3.57,.57h-2.44v-5.26Z" fill="#00283f"/>
        <path d="M205.48,4.68h5.88V28.33h-5.88V4.68Zm7.11,0h7.47v5.26h-7.47V4.68Zm0,9.07h6.09v5.26h-6.09v-5.26Zm0,9.31h7.47v5.26h-7.47v-5.26Z" fill="#00283f"/>
        <path d="M175.23,28.87c-.54,0-1.11-.06-1.71-.21-4.49-1.07-6.08-4.7-6.08-7.49h4.86c0,.82,.3,2.28,2.35,2.77,1.34,.32,2.06-.56,2.3-.93,1.55-3.43,3.94-9.66,3.94-12.19,0-.43,0-1.34-1.72-1.78-.22-.06-.47-.06-.7-.02-2.41,.5-4.43,1.04-5.15,1.38-.29,.14-.65,.91-.76,1.46l-4.79-.81c.06-.38,.69-3.72,3.46-5.04,1.42-.67,4.18-1.32,6.25-1.75,.95-.2,1.96-.17,2.9,.07,3.36,.87,5.36,3.29,5.36,6.48,0,4.45-3.98,13.33-4.43,14.32l-.07,.15c-.74,1.36-2.83,3.57-6.01,3.57Z" fill="#00283f"/>
        <polygon points="171.62 19.84 167.52 19.73 167.91 12.82 172.02 12.94 171.62 19.84" fill="#ff8038"/>
        <polygon points="66.91 19.84 62.81 19.73 63.2 12.82 67.31 12.94 66.91 19.84" fill="#ff8038"/>
        <path d="M149.04,4.71h5.88V28.36h-5.88V4.71Zm8.29,15.6h-1.18v-5.26h1c.61,0,1.07-.03,1.38-.09,.31-.06,.56-.17,.73-.33,.16-.16,.26-.4,.32-.72,.06-.32,.09-.79,.09-1.41s-.03-1.09-.09-1.43c-.06-.33-.17-.58-.32-.74-.16-.16-.39-.26-.69-.31-.3-.05-.78-.07-1.43-.07h-1V4.71h3.03c1.39,0,2.52,.16,3.38,.48,.86,.32,1.53,.81,2,1.48,.43,.62,.72,1.39,.87,2.3,.15,.92,.22,2.1,.22,3.54,0,1.86-.15,3.29-.44,4.3-.41,1.28-1.14,2.19-2.18,2.72l3.06,8.83h-6.17l-2.59-8.04Z" fill="#00283f"/>
        <path d="M86.44,28c-1.15-.4-2.01-1.07-2.6-2.01-.57-.89-.96-2.08-1.16-3.56-.21-1.48-.31-3.45-.31-5.93,0-2.18,.07-3.94,.22-5.29,.15-1.35,.42-2.49,.81-3.4,.41-.94,1.01-1.67,1.81-2.18,.79-.52,1.85-.86,3.16-1.05v11.93c0,1.28,.02,2.52,.06,3.71,.04,.92,.19,1.6,.46,2.06,.26,.46,.68,.74,1.25,.86,.55,.14,1.36,.21,2.44,.21s2.07-.06,2.85-.17c.31-.02,.7-.08,1.15-.17v4.98c-.96,.25-2.05,.42-3.26,.52-.67,.07-1.4,.1-2.21,.1-1.96,0-3.51-.2-4.66-.6Zm3.16-23.56c.16-.02,.4-.03,.73-.03h.76c1.31,0,2.6,.12,3.85,.34,.65,.12,1.15,.23,1.5,.34v4.91c-.29-.02-.78-.08-1.47-.17-.92-.11-1.73-.17-2.41-.17-.76,0-1.38,.03-1.84,.09-.46,.06-.84,.15-1.13,.29V4.44Z" fill="#00283f"/>
        <path d="M100.64,4.68h5.88V28.33h-5.88V4.68Zm7.11,15.36v-7.39l4.64-7.97h6.41l-6.97,11.14,7.05,12.51h-6.58l-4.56-8.28Z" fill="#00283f"/>
        <path d="M70.39,28.87c-.54,0-1.11-.06-1.71-.21-4.49-1.07-6.08-4.7-6.08-7.49h4.86c0,.82,.3,2.28,2.35,2.77,1.34,.32,2.06-.56,2.3-.93,1.55-3.43,3.94-9.66,3.94-12.19,0-.43,0-1.34-1.72-1.78-.23-.06-.47-.06-.7-.02-2.41,.5-4.43,1.04-5.15,1.38-.29,.14-.65,.91-.76,1.46l-4.79-.81c.06-.38,.69-3.72,3.46-5.04,1.42-.67,4.18-1.32,6.25-1.75,.95-.2,1.96-.17,2.9,.07,3.36,.87,5.36,3.29,5.36,6.48,0,4.45-3.98,13.33-4.43,14.32l-.07,.15c-.74,1.36-2.83,3.57-6.01,3.57Z" fill="#00283f"/>
        <path d="M44.2,4.71h5.88V28.36h-5.88V4.71Zm8.29,15.6h-1.18v-5.26h1c.61,0,1.07-.03,1.38-.09,.31-.06,.56-.17,.73-.33,.16-.16,.26-.4,.32-.72,.06-.32,.09-.79,.09-1.41s-.03-1.09-.09-1.43c-.06-.33-.17-.58-.32-.74-.16-.16-.39-.26-.69-.31-.3-.05-.78-.07-1.43-.07h-1V4.71h3.03c1.39,0,2.52,.16,3.38,.48,.86,.32,1.53,.81,2,1.48,.43,.62,.72,1.39,.87,2.3,.15,.92,.22,2.1,.22,3.54,0,1.86-.15,3.29-.44,4.3-.41,1.28-1.14,2.19-2.18,2.72l3.06,8.83h-6.17l-2.59-8.04Z" fill="#00283f"/>
        <path d="M127.32,12.44v-.49h2.98l5.75,11.47v.5h-2.96l-5.76-11.49Zm0,1.44l2.83,5.66v4.39h-2.83V13.89Zm5.9,2.44v-4.37h2.83v10.03l-2.83-5.66Z" fill="#ff8038"/>
      </g>
    </g>
  </g>
</svg>