<?xml version="1.0" encoding="UTF-8"?>
<svg id="b" data-name="Layer 2" xmlns="http://www.w3.org/2000/svg" width="102.2" height="100.84" viewBox="0 0 102.2 100.84">
  <g id="c" data-name="Layer 2">
    <g>
      <path d="M.48,57.97S7.76,18.08,11.38,13.43s12.33-6.64,18.09,1.07c5.76,7.7,16.43,20.32,11.07,33.44S7.49,65.46,7.49,65.46c0,0-9.73,1.45-7-7.49Z" fill="#ff8038"/>
      <path d="M79.28,72.64s-34.28-8.54-39.27-7.34c-4.99,1.2-9.69,7.4-5.65,14.74,4.05,7.33,10.23,20.34,22.57,20.79,12.34,.46,25.77-19.94,25.77-19.94,0,0,4.65-7.2-3.43-8.25Z" fill="#ff437d"/>
      <polygon points="76.1 43.89 68.92 50.7 57.82 38.25 65.01 31.44 76.1 43.89" fill="#ff8036"/>
      <path d="M97.45,53.36c-.92,.92-2,1.78-3.26,2.56-9.47,5.84-18.39,2.35-23.15-2.41l8.29-8.29c1.41,1.41,4.41,3.37,8.72,.72,2.83-1.75,2.57-4.46,2.35-5.5-3.21-8.49-9.75-23.19-14.06-27.5-.74-.74-2.28-2.28-5.96-.1-.48,.28-.9,.69-1.22,1.16-3.26,4.96-5.78,9.33-6.43,11.14-.26,.74,.44,2.67,1.21,3.78l-9.56,6.78c-.54-.75-5.17-7.52-2.69-14.49,1.27-3.56,4.88-9.39,7.68-13.64,1.29-1.96,3.04-3.63,5.06-4.82,7.2-4.24,14.75-3.53,20.19,1.92,7.58,7.58,15.94,29.51,16.87,31.98l.13,.38c1.07,3.58,1.26,10.92-4.15,16.34Z" fill="#06283d"/>
    </g>
  </g>
</svg>